<svg width="214" height="300" viewBox="0 0 214 300" fill="none" xmlns="http://www.w3.org/2000/svg">
<path d="M76.6336 149.877L24.764 162.771L21.5405 193.541H76.6336H111.799L131.141 174.493L100.664 149.877H76.6336Z" fill="#0098EA"/>
<rect width="80.5154" height="200.836" rx="40.2577" transform="matrix(-1 0 0 1 211.659 42.9492)" fill="#B6E4FF"/>
<path d="M207.446 299.755V81.2078C207.446 63.6323 199.202 47.0745 185.178 36.4814L176.263 29.748C152.824 12.0436 120.607 11.5972 96.686 28.6453L92.6684 31.5086C73.482 45.1826 62.091 67.2897 62.0919 90.8503L62.094 142.681M62.094 142.681L10.2244 155.575L7.00084 186.345H62.094M62.094 142.681H86.1239L116.601 167.297L97.2598 186.345H62.094M62.094 186.345V259.901M114.843 102.24V129.201M82.3143 103.999V125.391" stroke="#424F5C" stroke-width="11.2103"/>
</svg>
