<svg width="145" height="74" viewBox="0 0 145 74" fill="none" xmlns="http://www.w3.org/2000/svg">
<path d="M18.7305 36.9999L6.26804 40.0979L5.49353 47.4909H18.7305H27.1796L31.8267 42.9143L24.5041 36.9999H18.7305Z" fill="#0098EA"/>
<rect width="19.3451" height="48.2539" rx="9.67254" transform="matrix(-1 0 0 1 51.1724 11.3088)" fill="#B6E4FF"/>
<path d="M50.1602 73.0104V20.5011C50.1602 16.2783 48.1795 12.3 44.8099 9.75485L42.668 8.13702C37.0364 3.88328 29.2957 3.77602 23.5484 7.8721L22.5831 8.56005C17.9733 11.8454 15.2364 17.157 15.2367 22.8178L15.2371 35.2709M15.2371 35.2709L2.77467 38.369L2.00016 45.762H15.2371M15.2371 35.2709H21.0107L28.3333 41.1853L23.6863 45.762H15.2371M15.2371 45.762V63.4347M27.9108 25.5544V32.0321M20.0954 25.9769V31.1168" stroke="#424F5C" stroke-width="2.69344"/>
<path d="M71.1965 23.2072C71.2275 22.5578 71.5367 22.0629 72.0625 21.7537C72.5882 21.4753 73.2067 21.2898 73.918 21.197C74.5984 21.1352 75.186 21.1042 75.6499 21.1352C76.0519 21.1042 76.6086 21.1352 77.3199 21.2279C78.0003 21.3207 78.6188 21.5063 79.1755 21.7846C79.7322 22.0939 80.0105 22.5578 80.0414 23.1763C80.0105 23.5783 79.825 24.0113 79.4848 24.4752C79.2064 24.8772 78.9899 25.3102 78.8972 25.7741C78.5879 27.4441 78.4333 29.3615 78.4333 31.5573C78.4333 33.7531 78.5879 35.7014 78.8972 37.3714C78.9899 37.8353 79.2064 38.2683 79.4848 38.6703C79.825 39.1342 80.0105 39.5672 80.0414 39.9692C80.0105 40.5878 79.7322 41.0517 79.1755 41.33C78.6188 41.6393 78.0003 41.8248 77.3199 41.9176C76.6086 42.0104 76.0519 42.0413 75.6499 42.0413C75.186 42.0413 74.5984 42.0104 73.918 41.9176C73.2067 41.8557 72.5882 41.6702 72.0625 41.3609C71.5367 41.0826 71.2275 40.5878 71.1965 39.9383C71.2275 39.7218 71.2893 39.4744 71.4439 39.1961C71.5676 38.9487 71.7223 38.7013 71.9078 38.4539C72.1243 38.1137 72.3099 37.8044 72.4645 37.5261C72.681 37.0003 72.8665 36.4436 72.9593 35.7942C73.0521 35.1447 73.083 34.6499 73.083 34.2788C73.0212 33.1655 72.5264 32.5779 71.5986 32.516H67.7019C66.7741 32.5779 66.2793 33.1655 66.2174 34.2788C66.2174 35.2375 66.3411 36.289 66.5576 37.3714C66.6813 37.8353 66.8978 38.2683 67.1761 38.6703C67.5163 39.1342 67.7019 39.5672 67.7328 39.9692C67.7019 40.5878 67.4235 41.0517 66.8669 41.33C66.3102 41.6393 65.6917 41.8248 65.0113 41.9176C64.3 42.0104 63.7433 42.0413 63.3413 42.0413C62.8774 42.0413 62.2898 42.0104 61.6094 41.9176C60.8981 41.8557 60.2796 41.6702 59.7538 41.3609C59.2281 41.0826 58.9188 40.5878 58.8879 39.9383C58.8879 39.7218 58.9497 39.4744 59.1044 39.1961C59.259 38.9487 59.4136 38.7013 59.5992 38.4539C59.8157 38.1137 60.0012 37.8044 60.1559 37.5261C60.496 36.722 60.7125 35.5159 60.8362 33.9386C60.929 32.3614 60.929 30.7841 60.8362 29.2069C60.7125 27.6297 60.496 26.4235 60.1559 25.6504C60.0012 25.3411 59.8157 25.0319 59.5992 24.6917C59.4136 24.4443 59.259 24.1969 59.1044 23.9185C58.9497 23.6711 58.8879 23.4237 58.8879 23.2072C58.9188 22.5578 59.2281 22.0629 59.7538 21.7537C60.2796 21.4753 60.8981 21.2898 61.6094 21.197C62.2898 21.1352 62.8774 21.1042 63.3413 21.1352C63.7433 21.1042 64.3 21.1352 65.0113 21.2279C65.6917 21.3207 66.3102 21.5063 66.8669 21.7846C67.4235 22.0939 67.7019 22.5578 67.7328 23.1763C67.7019 23.5783 67.5163 24.0113 67.1761 24.4752C66.8978 24.8772 66.6813 25.3102 66.5576 25.7741C66.3411 26.9184 66.2174 27.9699 66.2174 28.8667C66.2793 30.011 66.7741 30.5986 67.7019 30.6295H71.5986C72.5264 30.5986 73.0212 30.011 73.083 28.8667C73.083 28.5265 73.0521 28.0626 72.9593 27.4132C72.8665 26.7637 72.681 26.1761 72.4645 25.6504C72.3099 25.3411 72.1243 25.0319 71.9078 24.6917C71.7223 24.4443 71.5676 24.1969 71.4439 23.9185C71.2893 23.6711 71.2275 23.4237 71.1965 23.2072ZM85.367 35.2375C86.5732 35.2066 87.4082 34.7118 87.8102 33.8149C88.2123 32.9181 88.2432 32.0212 87.9339 31.1243C87.5937 30.2275 87.0061 29.7945 86.1093 29.8254C85.1196 30.011 84.532 30.5986 84.3465 31.5882C84.1609 32.6088 84.2228 33.5057 84.532 34.3407C84.7485 34.8973 85.0268 35.2066 85.367 35.2375ZM93.3151 31.9593C93.4697 34.0005 92.7584 35.4231 91.243 36.2272C89.6967 37.0312 87.9648 37.2787 86.0165 37.0003C86.4804 38.0518 87.3772 38.6394 88.6761 38.7631C89.975 38.9178 91.0884 38.5466 92.0471 37.6498C92.2327 37.4333 92.4182 37.3096 92.5729 37.2168C92.7893 37.0622 93.0058 37.0622 93.2223 37.1859C93.4079 37.3405 93.5316 37.4951 93.5625 37.6807C93.5934 37.8972 93.5625 38.0827 93.5006 38.2992C93.1605 39.5053 92.4182 40.4641 91.3049 41.1754C90.1606 41.8867 88.8926 42.2887 87.47 42.3196C86.0783 42.3196 84.7794 42.0413 83.5115 41.4537C82.2435 40.897 81.2229 40.062 80.4498 38.9796C79.1199 36.9075 78.8725 34.8355 79.7075 32.7634C80.3879 31.1243 81.4085 29.8873 82.7383 29.1141C84.0681 28.341 85.6144 27.9699 87.3154 27.9389C88.6761 27.908 89.9441 28.2482 91.1502 28.8976C92.3564 29.5471 93.0677 30.5677 93.3151 31.9593ZM101.527 28.8049C101.589 28.8667 101.651 28.9595 101.682 29.0832C101.713 29.2378 101.744 29.3615 101.744 29.4852C101.744 29.7017 101.713 29.8564 101.651 29.9491C101.558 30.0728 101.496 30.1656 101.434 30.2275L101.311 30.3202C101.032 30.7841 101.342 31.7429 102.239 33.1964C102.331 33.1036 102.424 32.9799 102.517 32.8253C102.61 32.6706 102.733 32.4851 102.826 32.3305C102.857 32.2377 102.919 32.1449 102.981 32.083C103.506 31.248 103.723 30.7223 103.63 30.5058C103.599 30.413 103.537 30.3512 103.445 30.3202C103.352 30.2893 103.29 30.1965 103.197 30.1038C103.104 30.011 103.074 29.8254 103.074 29.6089C103.074 29.4543 103.074 29.3306 103.104 29.176C103.135 29.0523 103.166 28.9595 103.197 28.8976C103.414 28.6812 103.754 28.4956 104.249 28.4028C104.713 28.31 105.238 28.2482 105.826 28.2482C106.383 28.2482 106.908 28.31 107.372 28.4028C107.836 28.4956 108.176 28.6812 108.362 28.8976C108.455 28.9904 108.486 29.176 108.517 29.3925C108.517 29.6399 108.486 29.8254 108.393 29.9801C108.3 30.1038 108.176 30.1965 108.022 30.2275C107.867 30.2893 107.682 30.3202 107.527 30.3512H107.372C106.97 30.444 106.568 30.6604 106.166 31.0006C105.764 31.3408 105.455 31.681 105.238 32.0212L103.383 34.9901C104.28 36.2581 105.177 37.3714 106.073 38.3611C106.97 39.3507 107.651 39.9383 108.084 40.0929C108.362 40.1857 108.578 40.2785 108.733 40.4022C108.857 40.5568 108.919 40.7733 108.888 41.0517C108.857 41.2681 108.795 41.4228 108.671 41.5156C108.393 41.7011 107.96 41.8248 107.372 41.9176C106.785 42.0104 106.166 42.0722 105.548 42.1032C104.929 42.1341 104.434 42.1341 104.032 42.165C103.228 42.165 102.455 42.1341 101.682 42.0413C100.909 41.9485 100.29 41.7939 99.8572 41.5156C99.7644 41.4228 99.7335 41.2991 99.7026 41.1444C99.6716 40.9898 99.6716 40.8352 99.7026 40.6805C99.7335 40.5259 99.7644 40.4022 99.8263 40.3404C99.8572 40.2785 99.95 40.2167 100.043 40.1548C100.074 40.1548 100.074 40.1548 100.074 40.1239C100.228 40.0002 100.259 39.7528 100.105 39.3507C99.95 38.9487 99.7335 38.5466 99.4552 38.1137C99.1768 37.7116 98.9603 37.3714 98.8057 37.155L98.7439 37.0312C98.682 37.124 98.5892 37.2168 98.4964 37.3714C98.3109 37.6188 98.1253 37.8972 97.9088 38.2064C97.6924 38.5466 97.5068 38.8559 97.3522 39.1342C97.1975 39.4126 97.1666 39.66 97.2285 39.8146C97.2594 39.9383 97.3831 40.0311 97.5996 40.1239C97.8779 40.2785 98.0325 40.495 98.0944 40.7733C98.1253 41.0826 98.0944 41.33 97.9398 41.5156C97.7542 41.732 97.4449 41.8867 97.012 41.9794C96.579 42.0722 96.0842 42.1341 95.5584 42.165C94.9708 42.165 94.4142 42.1032 93.8884 41.9794C93.3627 41.8867 92.9916 41.732 92.7751 41.5156C92.6823 41.4228 92.6205 41.2681 92.6205 41.0517C92.6205 40.8661 92.6514 40.6805 92.7442 40.4641C92.8369 40.2785 92.9606 40.1548 93.1153 40.062C93.2699 40.0311 93.3936 40.0002 93.4864 39.9692L93.7029 39.9383C94.3214 39.6909 94.909 39.1961 95.4966 38.4539C96.0842 37.7116 96.579 36.9694 97.012 36.2272C97.2285 35.887 97.414 35.6086 97.5687 35.3922C96.7336 34.0005 95.8677 32.7634 94.9399 31.6192L94.8781 31.5573C94.507 31.0934 94.1668 30.7841 93.8575 30.5677C93.6719 30.4749 93.4555 30.3821 93.2081 30.2893C93.0843 30.2275 92.9606 30.1656 92.8679 30.1347C92.7751 30.1038 92.6823 30.0419 92.6514 30.011C92.5277 29.8564 92.4658 29.6708 92.4658 29.4234C92.4658 29.2069 92.5277 29.0213 92.6823 28.8976C93.0843 28.6193 93.7029 28.4337 94.476 28.341C95.2492 28.2482 96.0533 28.2173 96.8574 28.2482H97.1666C97.847 28.2482 98.6511 28.2791 99.5479 28.341C100.445 28.4028 101.125 28.5575 101.527 28.8049Z" fill="#424F5C"/>
<path d="M70.176 69.2887C68.3513 69.3196 66.5576 68.9176 64.8257 68.0826C63.0938 67.2476 61.6712 66.0105 60.5888 64.3405C59.3827 62.3303 58.826 60.2582 58.9807 58.1243C59.1044 56.0213 59.7538 54.1039 60.9599 52.403C62.1351 50.702 63.7124 49.4341 65.7226 48.599C67.1452 48.0733 68.6606 47.8568 70.2997 47.9187C72.4954 47.8877 74.4747 48.5063 76.1757 49.8052C77.3509 50.7948 78.0931 51.8463 78.4333 52.9287C78.7735 54.0111 78.7425 55.0008 78.3405 55.8667C77.9075 56.7327 77.2271 57.3202 76.2994 57.5986C75.3406 57.9078 74.4438 57.9388 73.5469 57.6914C72.6501 57.444 72.0625 56.9182 71.7841 56.1451C71.6295 55.5575 71.5367 54.8771 71.5058 54.1039C71.4749 53.8256 71.4439 53.5163 71.413 53.238C71.2893 52.0937 70.8873 51.2896 70.2378 50.8257C69.8358 50.4855 69.4028 50.2691 68.8771 50.1144C68.3513 49.9907 67.7328 50.0217 67.0833 50.2381C65.7844 50.702 64.8876 51.537 64.3618 52.7432C63.8361 53.9493 63.6814 55.2791 63.867 56.7636C64.0526 58.248 64.5165 59.6706 65.2896 61.0005C66.1555 62.454 67.238 63.5364 68.5059 64.2168C69.7739 64.9281 71.1347 65.2064 72.5264 65.0827C74.1964 64.9281 75.7118 64.124 77.1034 62.7323C77.1344 62.7323 77.1344 62.7323 77.1344 62.7014C77.1962 62.6705 77.2581 62.6086 77.3199 62.5777C77.3509 62.5468 77.4127 62.5159 77.4436 62.5159C77.5983 62.454 77.722 62.4231 77.8457 62.454C77.9385 62.4849 78.0622 62.5468 78.1859 62.6705C78.3714 62.887 78.4642 63.1344 78.4642 63.4127C78.4642 64.6188 78.0622 65.6394 77.289 66.5053C76.5158 67.4022 75.4953 68.0826 74.2582 68.5465C72.9903 69.0413 71.6295 69.2887 70.176 69.2887ZM88.4244 61.5881C87.8986 60.2273 87.2183 59.114 86.4451 58.2171C85.6719 57.3202 84.9297 57.011 84.2184 57.2275C83.5999 57.5367 83.3525 58.279 83.4453 59.4232C83.538 60.5984 83.8473 61.8355 84.404 63.1344C84.9297 64.3714 85.6101 65.392 86.3833 66.1652C87.1564 66.9692 87.8986 67.2785 88.6099 67.0929C89.1357 66.8765 89.3831 66.1961 89.3212 65.1137C89.2285 64.0312 88.9501 62.8561 88.4244 61.5881ZM81.4969 56.6089C83.1051 55.3719 84.9606 54.8461 87.0636 55.0008C89.1357 55.1554 90.8676 56.0213 92.2592 57.5367C93.4344 58.9284 94.022 60.5366 94.053 62.3303C94.0839 64.124 93.2489 65.825 91.5479 67.4331C90.0016 68.7011 88.3007 69.3196 86.4451 69.2887C84.0638 69.2578 82.1773 68.5465 80.7856 67.1239C79.363 65.7322 78.6517 64.0312 78.6517 62.0829C78.6517 60.1345 79.6104 58.3099 81.4969 56.6089ZM92.6772 66.9074C92.6772 66.6909 92.7391 66.4435 92.8937 66.1652C93.0483 65.9178 93.203 65.6703 93.3885 65.392C93.605 65.0827 93.7906 64.7735 93.9452 64.4642C94.2854 63.6292 94.5019 62.3303 94.6565 60.5057C94.7802 58.681 94.7493 56.8873 94.5947 55.0936C94.44 53.2998 94.0689 52.0319 93.5432 51.3206C93.3267 51.0422 93.172 50.7948 93.1102 50.5165C93.0483 50.2691 93.1102 50.0217 93.3267 49.7742C93.8524 49.1866 94.5947 48.7537 95.5224 48.4753C96.4502 48.197 97.2852 48.0424 98.0584 47.9496C99.883 47.6403 100.656 48.2279 100.378 49.6815C100.161 51.7844 100.007 54.2276 99.9449 57.011C99.8521 59.8253 100.007 62.2685 100.347 64.3405C100.471 64.8044 100.687 65.2374 100.965 65.6394C101.306 66.1033 101.491 66.5363 101.522 66.9692C101.491 67.5878 101.213 68.0517 100.656 68.33C100.1 68.6393 99.481 68.8248 98.8006 68.9176C98.0893 69.0104 97.5327 69.0413 97.1306 69.0413C96.6667 69.0413 96.0791 69.0104 95.3987 68.9176C94.6874 68.8557 94.0689 68.6702 93.5432 68.3609C93.0174 68.0517 92.7082 67.5568 92.6772 66.9074ZM110.314 61.5881C109.789 60.2273 109.108 59.114 108.335 58.2171C107.562 57.3202 106.82 57.011 106.108 57.2275C105.49 57.5367 105.242 58.279 105.335 59.4232C105.428 60.5984 105.737 61.8355 106.294 63.1344C106.82 64.3714 107.5 65.392 108.273 66.1652C109.046 66.9692 109.789 67.2785 110.5 67.0929C111.026 66.8765 111.273 66.1961 111.211 65.1137C111.118 64.0312 110.84 62.8561 110.314 61.5881ZM103.387 56.6089C104.995 55.3719 106.851 54.8461 108.954 55.0008C111.026 55.1554 112.758 56.0213 114.149 57.5367C115.324 58.9284 115.912 60.5366 115.943 62.3303C115.974 64.124 115.139 65.825 113.438 67.4331C111.892 68.7011 110.191 69.3196 108.335 69.2887C105.954 69.2578 104.067 68.5465 102.676 67.1239C101.253 65.7322 100.542 64.0312 100.542 62.0829C100.542 60.1345 101.5 58.3099 103.387 56.6089ZM125.849 55.0008C126.622 55.0008 127.24 55.1863 127.704 55.5575C128.168 55.9286 128.539 56.3925 128.787 56.9491C129.127 57.6914 129.22 58.4027 129.034 59.114C128.818 59.8253 128.292 60.3201 127.395 60.5984C126.962 60.7221 126.498 60.7531 126.003 60.6912C125.478 60.6603 125.137 60.4129 124.921 59.949C124.705 59.2995 124.395 58.9593 123.962 58.9593C123.684 58.9284 123.375 59.1758 122.973 59.6706C122.632 60.1345 122.354 60.5984 122.138 61.1242C121.89 61.6499 121.767 62.1138 121.736 62.4849C121.705 63.5055 121.859 64.3714 122.199 65.0518C122.292 65.2064 122.354 65.3611 122.447 65.5157C122.787 65.9487 122.942 66.4435 122.973 66.9692C122.88 67.928 122.416 68.5465 121.519 68.763C120.622 68.9794 119.756 69.0722 118.921 69.0413C118.086 69.0722 117.22 68.9794 116.323 68.763C115.427 68.5465 114.932 67.9589 114.839 67.0002C114.839 66.6909 114.901 66.4126 115.056 66.1652C115.179 65.9487 115.334 65.7322 115.519 65.5157C115.86 65.1446 116.138 64.6498 116.323 64.0622C116.54 63.1035 116.633 62.0829 116.602 60.9386C116.54 59.7944 116.385 59.0212 116.138 58.5573C116.014 58.4027 115.891 58.248 115.736 58.1553C115.612 58.0625 115.519 57.9388 115.427 57.8151C115.334 57.6914 115.241 57.5058 115.21 57.2584C115.179 56.8873 115.519 56.5162 116.2 56.1451C116.818 55.8049 117.499 55.5575 118.272 55.3719C119.045 55.1863 119.633 55.0626 120.096 55.0317C120.622 54.9389 121.086 54.9699 121.488 55.0936C121.859 55.2482 122.014 55.6193 121.921 56.2378C121.89 56.4234 121.859 56.6089 121.828 56.8254C121.736 57.2893 121.643 57.7841 121.612 58.3099C122.014 57.413 122.571 56.6399 123.22 55.9904C123.87 55.341 124.766 55.0317 125.849 55.0008ZM135.743 57.1347C135.464 57.1038 135.186 57.1347 134.969 57.2584C134.753 57.413 134.66 57.6295 134.753 57.9697C134.908 58.4645 135.279 58.8666 135.866 59.1449C136.423 59.4542 137.072 59.7325 137.846 60.0108C139.052 60.3819 140.165 60.9077 141.155 61.5881C142.144 62.2994 142.639 63.3818 142.67 64.8972C142.515 66.4126 141.804 67.5259 140.505 68.2372C139.206 68.9485 137.691 69.3196 135.959 69.3196C134.196 69.2887 132.619 69.0413 131.196 68.5156C129.774 67.9898 128.939 67.4022 128.66 66.7218C128.444 65.9178 128.599 65.2992 129.093 64.8353C129.588 64.3714 130.207 64.1859 130.98 64.2168C131.691 64.3096 132.372 64.557 133.052 65.0209C133.701 65.4848 134.289 65.9487 134.815 66.4435C134.969 66.5981 135.248 66.8146 135.588 67.062C135.928 67.3094 136.268 67.4641 136.608 67.5568C137.072 67.6496 137.382 67.4331 137.598 66.9692C137.784 66.3507 137.443 65.794 136.547 65.2683C135.65 64.7426 134.629 64.2787 133.423 63.8148C132.959 63.6292 132.526 63.4436 132.124 63.2581C131.073 62.8251 130.207 62.1757 129.526 61.3097C128.815 60.4747 128.629 59.4542 128.97 58.3099C129.526 56.8564 130.516 55.8976 131.908 55.4956C133.299 55.0936 134.691 54.9389 136.052 55.0008C137.382 55.0008 138.588 55.1554 139.732 55.4337C140.876 55.7121 141.711 56.1451 142.299 56.7327C142.948 57.7223 142.856 58.5573 141.959 59.2377C141.433 59.5779 140.907 59.7325 140.443 59.6397C139.979 59.5779 139.516 59.3923 139.083 59.114C138.804 58.9284 138.526 58.7119 138.217 58.4954C137.815 58.1862 137.413 57.9078 137.011 57.6295C136.578 57.3512 136.145 57.1965 135.743 57.1347Z" fill="#0098EA"/>
</svg>
