<svg width="68" height="53" viewBox="0 0 68 53" fill="none" xmlns="http://www.w3.org/2000/svg">
<path d="M56.5257 46.8156C56.8696 46.6239 57.0237 46.6143 57.1413 46.5141C63.4115 38.1758 66.167 28.8299 64.446 18.443C64.0179 15.819 62.9192 13.3604 61.2955 11.1667C57.8561 6.43463 51.9975 4.57986 46.4807 6.43937C43.5999 7.39218 41.0113 8.80744 39.1894 11.3378C39.5398 12.7267 39.9355 14.0972 40.1587 15.4319C40.5124 17.611 40.1308 19.665 38.6775 21.4131C37.6307 22.7332 36.2722 23.2821 35.2545 22.8489C33.9186 22.2804 33.4054 21.0101 33.5725 19.7288C33.801 17.9478 34.2473 16.1843 34.7756 14.4932C35.1248 13.4022 35.7555 12.3558 36.2956 11.346C33.4546 6.53051 27.7297 6.31043 22.7952 10.7844C22.9073 11.5835 23.0378 12.4279 23.1047 13.2453C23.2805 16.2878 22.4299 19.0062 20.098 21.0566C19.2031 21.8404 18.1261 22.4338 16.8355 21.847C15.863 21.3956 15.3498 20.1253 15.5611 18.5623C15.9319 16.0905 17.1297 13.9706 18.5366 11.9773C19.0508 11.2946 19.5651 10.6118 20.0977 9.97448C15.9844 2.40112 6.60237 -0.352114 0.912116 5.64099C0.719113 5.03292 0.472205 4.55218 0.543353 4.2068C0.641452 3.79775 1.06623 3.41504 1.4371 3.15965C4.99274 0.878719 8.75325 -0.112901 12.833 1.5107C15.8949 2.70114 18.4157 4.63797 20.5849 7.13898C20.8857 7.4924 21.1865 7.84582 21.5326 8.18094C21.551 8.22631 21.6598 8.23509 21.896 8.29801C22.2852 8.08799 22.7833 7.88675 23.2447 7.59477C28.9275 4.19056 32.757 4.54313 37.8557 9.07975C38.3257 8.67874 38.8863 8.24114 39.3833 7.77648C42.3934 5.18823 45.8434 3.68879 49.8519 3.44134C56.3725 3.02332 62.0835 6.46816 65.0205 12.5642C66.6216 15.8752 67.3527 19.3795 67.4131 23.0492C67.5223 31.9237 65.0697 39.9333 59.3288 46.844C59.0582 47.2172 58.724 47.5634 58.4534 47.9365C58.4264 48.0002 58.4178 48.1092 58.3919 48.4363C60.0782 48.1772 61.4722 47.4557 62.8845 46.7795C64.2699 46.167 65.6639 45.4455 67.1668 44.7327C67.5075 45.9672 67.0569 46.677 66.3971 47.2602C65.6014 47.8983 64.8424 48.6271 63.9552 49.0384C61.5466 50.117 59.0745 51.1686 56.529 52.0387C54.5269 52.6893 53.562 51.8654 53.7808 49.9299C54.2809 45.8227 54.8264 41.6971 55.3718 37.5716C55.4688 36.8991 55.6931 36.2808 55.9345 35.4444C57.1981 36.0949 57.1292 36.9671 57.0871 37.7757C56.809 40.7378 56.6668 43.645 56.5257 46.8156ZM17.6441 19.9372C20.6035 18.2665 21.7441 15.4837 20.7435 12.616C19.2105 14.8186 17.713 16.8485 17.6441 19.9372ZM35.7902 20.7854C38.2052 19.0709 38.7399 16.7439 37.3501 14.0863C36.216 16.2333 35.2716 18.198 35.7902 20.7854Z" fill="url(#paint0_linear_12_89)"/>
<defs>
<linearGradient id="paint0_linear_12_89" x1="12.4334" y1="34.1572" x2="65.1885" y2="12.8428" gradientUnits="userSpaceOnUse">
<stop stop-color="#2D83EC"/>
<stop offset="1" stop-color="#1AC9FF"/>
</linearGradient>
</defs>
</svg>
