<svg width="271" height="182" viewBox="0 0 271 182" fill="none" xmlns="http://www.w3.org/2000/svg">
<path opacity="0.8" fill-rule="evenodd" clip-rule="evenodd" d="M129.048 3.46196C129.048 6.75898 129.024 6.92391 128.551 6.92391C128.11 6.92391 128.055 7.08885 128.055 8.40761C128.055 9.72637 128.11 9.8913 128.551 9.8913C128.882 9.8913 129.048 10.0562 129.048 10.3859C129.048 10.7155 129.213 10.8804 129.544 10.8804C129.875 10.8804 130.04 11.0454 130.04 11.375C130.04 11.7046 130.206 11.8696 130.537 11.8696C130.867 11.8696 131.033 12.0345 131.033 12.3641C131.033 12.7764 131.199 12.8587 132.026 12.8587C132.853 12.8587 133.018 12.941 133.018 13.3533C133.018 13.8149 133.184 13.8478 135.5 13.8478C137.816 13.8478 137.982 13.8149 137.982 13.3533C137.982 12.941 138.147 12.8587 138.974 12.8587C139.801 12.8587 139.967 12.7764 139.967 12.3641C139.967 12.0345 140.133 11.8696 140.463 11.8696C140.794 11.8696 140.96 11.7046 140.96 11.375C140.96 11.0454 141.125 10.8804 141.456 10.8804C141.787 10.8804 141.952 10.7155 141.952 10.3859C141.952 10.0562 142.118 9.8913 142.449 9.8913C142.89 9.8913 142.945 9.72637 142.945 8.40761C142.945 7.08885 142.89 6.92391 142.449 6.92391C141.976 6.92391 141.952 6.75898 141.952 3.46196V0H140.96C140.133 0 139.967 0.0823451 139.967 0.494565C139.967 0.824193 139.801 0.98913 139.471 0.98913C139.14 0.98913 138.974 1.15407 138.974 1.4837C138.974 1.81332 138.809 1.97826 138.478 1.97826C138.147 1.97826 137.982 2.1432 137.982 2.47283C137.982 2.88505 137.816 2.96739 136.989 2.96739C136.162 2.96739 135.996 2.88505 135.996 2.47283C135.996 2.1432 135.831 1.97826 135.5 1.97826C135.169 1.97826 135.004 2.1432 135.004 2.47283C135.004 2.88505 134.838 2.96739 134.011 2.96739C133.184 2.96739 133.018 2.88505 133.018 2.47283C133.018 2.1432 132.853 1.97826 132.522 1.97826C132.191 1.97826 132.026 1.81332 132.026 1.4837C132.026 1.15407 131.86 0.98913 131.529 0.98913C131.199 0.98913 131.033 0.824193 131.033 0.494565C131.033 0.0823451 130.867 0 130.04 0H129.048V3.46196ZM131.033 8.40761C131.033 8.73724 131.199 8.90217 131.529 8.90217C131.86 8.90217 132.026 9.06711 132.026 9.39674C132.026 9.80896 132.191 9.8913 133.018 9.8913C133.845 9.8913 134.011 9.80896 134.011 9.39674C134.011 9.06711 133.845 8.90217 133.515 8.90217C133.184 8.90217 133.018 8.73724 133.018 8.40761C133.018 7.99539 132.853 7.91304 132.026 7.91304C131.199 7.91304 131.033 7.99539 131.033 8.40761ZM137.982 8.40761C137.982 8.73724 137.816 8.90217 137.485 8.90217C137.155 8.90217 136.989 9.06711 136.989 9.39674C136.989 9.80896 137.155 9.8913 137.982 9.8913C138.809 9.8913 138.974 9.80896 138.974 9.39674C138.974 9.06711 139.14 8.90217 139.471 8.90217C139.801 8.90217 139.967 8.73724 139.967 8.40761C139.967 7.99539 139.801 7.91304 138.974 7.91304C138.147 7.91304 137.982 7.99539 137.982 8.40761ZM85.37 10.8804C85.37 11.7046 85.2873 11.8696 84.8736 11.8696C84.3939 11.8696 84.3773 12.0345 84.3773 16.8152C84.3773 21.5959 84.3939 21.7609 84.8736 21.7609C85.2044 21.7609 85.37 21.9258 85.37 22.2554C85.37 22.5851 85.5355 22.75 85.8663 22.75C86.1971 22.75 86.3626 22.9149 86.3626 23.2446C86.3626 23.6568 86.5282 23.7391 87.3553 23.7391C88.1825 23.7391 88.348 23.8215 88.348 24.2337C88.348 24.5633 88.5135 24.7283 88.8443 24.7283C89.1751 24.7283 89.3407 24.8932 89.3407 25.2228C89.3407 25.6899 89.5062 25.7174 92.3187 25.7174C95.1312 25.7174 95.2967 25.6899 95.2967 25.2228C95.2967 24.8932 95.4622 24.7283 95.793 24.7283C96.1238 24.7283 96.2894 24.5633 96.2894 24.2337C96.2894 23.8215 96.4549 23.7391 97.2821 23.7391C98.1092 23.7391 98.2747 23.6568 98.2747 23.2446C98.2747 22.9149 98.4403 22.75 98.7711 22.75C99.1019 22.75 99.2674 22.5851 99.2674 22.2554C99.2674 21.9258 99.4329 21.7609 99.7637 21.7609C100.243 21.7609 100.26 21.5959 100.26 16.8152C100.26 12.0345 100.243 11.8696 99.7637 11.8696C99.35 11.8696 99.2674 11.7046 99.2674 10.8804C99.2674 10.0562 99.1848 9.8913 98.7711 9.8913C98.4403 9.8913 98.2747 10.0562 98.2747 10.3859C98.2747 10.7981 98.1092 10.8804 97.2821 10.8804C96.4549 10.8804 96.2894 10.9628 96.2894 11.375C96.2894 11.7046 96.1238 11.8696 95.793 11.8696C95.4622 11.8696 95.2967 12.0345 95.2967 12.3641C95.2967 12.8312 95.1312 12.8587 92.3187 12.8587C89.5062 12.8587 89.3407 12.8312 89.3407 12.3641C89.3407 12.0345 89.1751 11.8696 88.8443 11.8696C88.5135 11.8696 88.348 11.7046 88.348 11.375C88.348 10.9628 88.1825 10.8804 87.3553 10.8804C86.5282 10.8804 86.3626 10.7981 86.3626 10.3859C86.3626 10.0562 86.1971 9.8913 85.8663 9.8913C85.4526 9.8913 85.37 10.0562 85.37 10.8804ZM171.733 10.8804C171.733 11.7046 171.65 11.8696 171.236 11.8696C170.757 11.8696 170.74 12.0345 170.74 16.8152C170.74 21.5959 170.757 21.7609 171.236 21.7609C171.567 21.7609 171.733 21.9258 171.733 22.2554C171.733 22.5851 171.898 22.75 172.229 22.75C172.56 22.75 172.725 22.9149 172.725 23.2446C172.725 23.6568 172.891 23.7391 173.718 23.7391C174.545 23.7391 174.711 23.8215 174.711 24.2337C174.711 24.5633 174.876 24.7283 175.207 24.7283C175.538 24.7283 175.703 24.8932 175.703 25.2228C175.703 25.6899 175.869 25.7174 178.681 25.7174C181.494 25.7174 181.659 25.6899 181.659 25.2228C181.659 24.8932 181.825 24.7283 182.156 24.7283C182.486 24.7283 182.652 24.5633 182.652 24.2337C182.652 23.8215 182.818 23.7391 183.645 23.7391C184.472 23.7391 184.637 23.6568 184.637 23.2446C184.637 22.9149 184.803 22.75 185.134 22.75C185.465 22.75 185.63 22.5851 185.63 22.2554C185.63 21.9258 185.796 21.7609 186.126 21.7609C186.606 21.7609 186.623 21.5959 186.623 16.8152C186.623 12.0345 186.606 11.8696 186.126 11.8696C185.713 11.8696 185.63 11.7046 185.63 10.8804C185.63 10.0562 185.547 9.8913 185.134 9.8913C184.803 9.8913 184.637 10.0562 184.637 10.3859C184.637 10.7981 184.472 10.8804 183.645 10.8804C182.818 10.8804 182.652 10.9628 182.652 11.375C182.652 11.7046 182.486 11.8696 182.156 11.8696C181.825 11.8696 181.659 12.0345 181.659 12.3641C181.659 12.8312 181.494 12.8587 178.681 12.8587C175.869 12.8587 175.703 12.8312 175.703 12.3641C175.703 12.0345 175.538 11.8696 175.207 11.8696C174.876 11.8696 174.711 11.7046 174.711 11.375C174.711 10.9628 174.545 10.8804 173.718 10.8804C172.891 10.8804 172.725 10.7981 172.725 10.3859C172.725 10.0562 172.56 9.8913 172.229 9.8913C171.815 9.8913 171.733 10.0562 171.733 10.8804ZM135.004 11.375C135.004 11.7046 135.169 11.8696 135.5 11.8696C135.831 11.8696 135.996 11.7046 135.996 11.375C135.996 11.0454 135.831 10.8804 135.5 10.8804C135.169 10.8804 135.004 11.0454 135.004 11.375ZM25.8095 18.2989C25.8095 18.6285 25.644 18.7935 25.3132 18.7935C24.8335 18.7935 24.8169 18.9584 24.8169 23.7391C24.8169 28.5198 24.8335 28.6848 25.3132 28.6848C25.644 28.6848 25.8095 28.8497 25.8095 29.1793C25.8095 29.509 25.9751 29.6739 26.3059 29.6739C26.6367 29.6739 26.8022 29.8389 26.8022 30.1685C26.8022 30.5807 26.9677 30.663 27.7949 30.663C28.622 30.663 28.7875 30.7454 28.7875 31.1576C28.7875 31.6247 28.9531 31.6522 31.7656 31.6522C34.5781 31.6522 34.7436 31.6247 34.7436 31.1576C34.7436 30.7454 34.9091 30.663 35.7363 30.663C36.5634 30.663 36.7289 30.5807 36.7289 30.1685C36.7289 29.8389 36.8945 29.6739 37.2253 29.6739C37.5561 29.6739 37.7216 29.509 37.7216 29.1793C37.7216 28.8497 37.8871 28.6848 38.2179 28.6848C38.6977 28.6848 38.7143 28.5198 38.7143 23.7391C38.7143 18.9584 38.6977 18.7935 38.2179 18.7935C37.8871 18.7935 37.7216 18.6285 37.7216 18.2989C37.7216 17.9693 37.5561 17.8043 37.2253 17.8043C36.8945 17.8043 36.7289 17.9693 36.7289 18.2989C36.7289 18.6285 36.5634 18.7935 36.2326 18.7935C35.9018 18.7935 35.7363 18.9584 35.7363 19.288C35.7363 19.6177 35.5707 19.7826 35.2399 19.7826C34.9091 19.7826 34.7436 19.9475 34.7436 20.2772C34.7436 20.7443 34.5781 20.7717 31.7656 20.7717C28.9531 20.7717 28.7875 20.7443 28.7875 20.2772C28.7875 19.9475 28.622 19.7826 28.2912 19.7826C27.9604 19.7826 27.7949 19.6177 27.7949 19.288C27.7949 18.9584 27.6293 18.7935 27.2985 18.7935C26.9677 18.7935 26.8022 18.6285 26.8022 18.2989C26.8022 17.9693 26.6367 17.8043 26.3059 17.8043C25.9751 17.8043 25.8095 17.9693 25.8095 18.2989ZM233.278 18.2989C233.278 18.6285 233.113 18.7935 232.782 18.7935C232.302 18.7935 232.286 18.9584 232.286 23.7391C232.286 28.5198 232.302 28.6848 232.782 28.6848C233.113 28.6848 233.278 28.8497 233.278 29.1793C233.278 29.509 233.444 29.6739 233.775 29.6739C234.106 29.6739 234.271 29.8389 234.271 30.1685C234.271 30.5807 234.437 30.663 235.264 30.663C236.091 30.663 236.256 30.7454 236.256 31.1576C236.256 31.6247 236.422 31.6522 239.234 31.6522C242.047 31.6522 242.212 31.6247 242.212 31.1576C242.212 30.7454 242.378 30.663 243.205 30.663C244.032 30.663 244.198 30.5807 244.198 30.1685C244.198 29.8389 244.363 29.6739 244.694 29.6739C245.025 29.6739 245.19 29.509 245.19 29.1793C245.19 28.8497 245.356 28.6848 245.687 28.6848C246.167 28.6848 246.183 28.5198 246.183 23.7391C246.183 18.9584 246.167 18.7935 245.687 18.7935C245.356 18.7935 245.19 18.6285 245.19 18.2989C245.19 17.9693 245.025 17.8043 244.694 17.8043C244.363 17.8043 244.198 17.9693 244.198 18.2989C244.198 18.6285 244.032 18.7935 243.701 18.7935C243.371 18.7935 243.205 18.9584 243.205 19.288C243.205 19.6177 243.04 19.7826 242.709 19.7826C242.378 19.7826 242.212 19.9475 242.212 20.2772C242.212 20.7443 242.047 20.7717 239.234 20.7717C236.422 20.7717 236.256 20.7443 236.256 20.2772C236.256 19.9475 236.091 19.7826 235.76 19.7826C235.429 19.7826 235.264 19.6177 235.264 19.288C235.264 18.9584 235.098 18.7935 234.767 18.7935C234.437 18.7935 234.271 18.6285 234.271 18.2989C234.271 17.9693 234.106 17.8043 233.775 17.8043C233.444 17.8043 233.278 17.9693 233.278 18.2989ZM87.3553 19.7826V20.7717H88.8443C90.1678 20.7717 90.3333 20.7168 90.3333 20.2772C90.3333 19.9475 90.1678 19.7826 89.837 19.7826C89.5062 19.7826 89.3407 19.6177 89.3407 19.288C89.3407 18.8758 89.1751 18.7935 88.348 18.7935H87.3553V19.7826ZM95.2967 19.288C95.2967 19.6177 95.1312 19.7826 94.8004 19.7826C94.4696 19.7826 94.304 19.9475 94.304 20.2772C94.304 20.7168 94.4696 20.7717 95.793 20.7717H97.2821V19.7826V18.7935H96.2894C95.4622 18.7935 95.2967 18.8758 95.2967 19.288ZM173.718 19.7826V20.7717H175.207C176.53 20.7717 176.696 20.7168 176.696 20.2772C176.696 19.9475 176.53 19.7826 176.2 19.7826C175.869 19.7826 175.703 19.6177 175.703 19.288C175.703 18.8758 175.538 18.7935 174.711 18.7935H173.718V19.7826ZM181.659 19.288C181.659 19.6177 181.494 19.7826 181.163 19.7826C180.832 19.7826 180.667 19.9475 180.667 20.2772C180.667 20.7168 180.832 20.7717 182.156 20.7717H183.645V19.7826V18.7935H182.652C181.825 18.7935 181.659 18.8758 181.659 19.288ZM91.326 22.2554C91.326 22.6677 91.4915 22.75 92.3187 22.75C93.1458 22.75 93.3114 22.6677 93.3114 22.2554C93.3114 21.8432 93.1458 21.7609 92.3187 21.7609C91.4915 21.7609 91.326 21.8432 91.326 22.2554ZM177.689 22.2554C177.689 22.6677 177.854 22.75 178.681 22.75C179.508 22.75 179.674 22.6677 179.674 22.2554C179.674 21.8432 179.508 21.7609 178.681 21.7609C177.854 21.7609 177.689 21.8432 177.689 22.2554ZM26.8022 26.212C26.8022 26.5416 26.9677 26.7065 27.2985 26.7065C27.6293 26.7065 27.7949 26.8715 27.7949 27.2011C27.7949 27.6133 27.9604 27.6957 28.7875 27.6957H29.7802V26.7065V25.7174H28.2912C26.9677 25.7174 26.8022 25.7723 26.8022 26.212ZM33.7509 26.7065V27.6957H34.7436C35.5707 27.6957 35.7363 27.6133 35.7363 27.2011C35.7363 26.8715 35.9018 26.7065 36.2326 26.7065C36.5634 26.7065 36.7289 26.5416 36.7289 26.212C36.7289 25.7723 36.5634 25.7174 35.2399 25.7174H33.7509V26.7065ZM234.271 26.212C234.271 26.5416 234.437 26.7065 234.767 26.7065C235.098 26.7065 235.264 26.8715 235.264 27.2011C235.264 27.6133 235.429 27.6957 236.256 27.6957H237.249V26.7065V25.7174H235.76C234.437 25.7174 234.271 25.7723 234.271 26.212ZM241.22 26.7065V27.6957H242.212C243.04 27.6957 243.205 27.6133 243.205 27.2011C243.205 26.8715 243.371 26.7065 243.701 26.7065C244.032 26.7065 244.198 26.5416 244.198 26.212C244.198 25.7723 244.032 25.7174 242.709 25.7174H241.22V26.7065ZM30.7729 29.1793C30.7729 29.5916 30.9384 29.6739 31.7656 29.6739C32.5927 29.6739 32.7582 29.5916 32.7582 29.1793C32.7582 28.7671 32.5927 28.6848 31.7656 28.6848C30.9384 28.6848 30.7729 28.7671 30.7729 29.1793ZM238.242 29.1793C238.242 29.5916 238.407 29.6739 239.234 29.6739C240.062 29.6739 240.227 29.5916 240.227 29.1793C240.227 28.7671 240.062 28.6848 239.234 28.6848C238.407 28.6848 238.242 28.7671 238.242 29.1793ZM59.5604 41.0489C59.5604 41.3785 59.3949 41.5435 59.0641 41.5435C58.5844 41.5435 58.5678 41.7084 58.5678 46.4891C58.5678 51.2698 58.5844 51.4348 59.0641 51.4348C59.3949 51.4348 59.5604 51.5997 59.5604 51.9293C59.5604 52.259 59.726 52.4239 60.0568 52.4239C60.3876 52.4239 60.5531 52.5889 60.5531 52.9185C60.5531 53.3307 60.7186 53.413 61.5458 53.413C62.3729 53.413 62.5385 53.4954 62.5385 53.9076C62.5385 54.3747 62.704 54.4022 65.5165 54.4022C68.329 54.4022 68.4945 54.3747 68.4945 53.9076C68.4945 53.4954 68.66 53.413 69.4872 53.413C70.3143 53.413 70.4799 53.3307 70.4799 52.9185C70.4799 52.5889 70.6454 52.4239 70.9762 52.4239C71.307 52.4239 71.4725 52.259 71.4725 51.9293C71.4725 51.5997 71.6381 51.4348 71.9689 51.4348C72.4486 51.4348 72.4652 51.2698 72.4652 46.4891C72.4652 41.7084 72.4486 41.5435 71.9689 41.5435C71.6381 41.5435 71.4725 41.3785 71.4725 41.0489C71.4725 40.7193 71.307 40.5543 70.9762 40.5543C70.6454 40.5543 70.4799 40.7193 70.4799 41.0489C70.4799 41.3785 70.3143 41.5435 69.9835 41.5435C69.6527 41.5435 69.4872 41.7084 69.4872 42.038C69.4872 42.3677 69.3216 42.5326 68.9908 42.5326C68.66 42.5326 68.4945 42.6975 68.4945 43.0272C68.4945 43.4394 68.329 43.5217 67.5018 43.5217C66.6747 43.5217 66.5092 43.4394 66.5092 43.0272C66.5092 42.615 66.3436 42.5326 65.5165 42.5326C64.6893 42.5326 64.5238 42.615 64.5238 43.0272C64.5238 43.4394 64.3583 43.5217 63.5311 43.5217C62.704 43.5217 62.5385 43.4394 62.5385 43.0272C62.5385 42.6975 62.3729 42.5326 62.0421 42.5326C61.7113 42.5326 61.5458 42.3677 61.5458 42.038C61.5458 41.7084 61.3803 41.5435 61.0494 41.5435C60.7186 41.5435 60.5531 41.3785 60.5531 41.0489C60.5531 40.7193 60.3876 40.5543 60.0568 40.5543C59.726 40.5543 59.5604 40.7193 59.5604 41.0489ZM199.527 41.0489C199.527 41.3785 199.362 41.5435 199.031 41.5435C198.551 41.5435 198.535 41.7084 198.535 46.4891C198.535 51.2698 198.551 51.4348 199.031 51.4348C199.362 51.4348 199.527 51.5997 199.527 51.9293C199.527 52.259 199.693 52.4239 200.024 52.4239C200.355 52.4239 200.52 52.5889 200.52 52.9185C200.52 53.3307 200.686 53.413 201.513 53.413C202.34 53.413 202.505 53.4954 202.505 53.9076C202.505 54.3747 202.671 54.4022 205.484 54.4022C208.296 54.4022 208.462 54.3747 208.462 53.9076C208.462 53.4954 208.627 53.413 209.454 53.413C210.281 53.413 210.447 53.3307 210.447 52.9185C210.447 52.5889 210.612 52.4239 210.943 52.4239C211.274 52.4239 211.44 52.259 211.44 51.9293C211.44 51.5997 211.605 51.4348 211.936 51.4348C212.416 51.4348 212.432 51.2698 212.432 46.4891C212.432 41.7084 212.416 41.5435 211.936 41.5435C211.605 41.5435 211.44 41.3785 211.44 41.0489C211.44 40.7193 211.274 40.5543 210.943 40.5543C210.612 40.5543 210.447 40.7193 210.447 41.0489C210.447 41.3785 210.281 41.5435 209.951 41.5435C209.62 41.5435 209.454 41.7084 209.454 42.038C209.454 42.3677 209.289 42.5326 208.958 42.5326C208.627 42.5326 208.462 42.6975 208.462 43.0272C208.462 43.4394 208.296 43.5217 207.469 43.5217C206.642 43.5217 206.476 43.4394 206.476 43.0272C206.476 42.615 206.311 42.5326 205.484 42.5326C204.656 42.5326 204.491 42.615 204.491 43.0272C204.491 43.4394 204.325 43.5217 203.498 43.5217C202.671 43.5217 202.505 43.4394 202.505 43.0272C202.505 42.6975 202.34 42.5326 202.009 42.5326C201.678 42.5326 201.513 42.3677 201.513 42.038C201.513 41.7084 201.347 41.5435 201.016 41.5435C200.686 41.5435 200.52 41.3785 200.52 41.0489C200.52 40.7193 200.355 40.5543 200.024 40.5543C199.693 40.5543 199.527 40.7193 199.527 41.0489ZM61.5458 49.4565V50.4457H62.5385H63.5311V49.4565V48.4674H62.5385H61.5458V49.4565ZM67.5018 49.4565V50.4457H68.4945H69.4872V49.4565V48.4674H68.4945H67.5018V49.4565ZM201.513 49.4565V50.4457H202.505H203.498V49.4565V48.4674H202.505H201.513V49.4565ZM207.469 49.4565V50.4457H208.462H209.454V49.4565V48.4674H208.462H207.469V49.4565ZM64.5238 51.9293C64.5238 52.3416 64.6893 52.4239 65.5165 52.4239C66.3436 52.4239 66.5092 52.3416 66.5092 51.9293C66.5092 51.5171 66.3436 51.4348 65.5165 51.4348C64.6893 51.4348 64.5238 51.5171 64.5238 51.9293ZM204.491 51.9293C204.491 52.3416 204.656 52.4239 205.484 52.4239C206.311 52.4239 206.476 52.3416 206.476 51.9293C206.476 51.5171 206.311 51.4348 205.484 51.4348C204.656 51.4348 204.491 51.5171 204.491 51.9293ZM0.992674 60.8315C0.992674 61.1611 0.827146 61.3261 0.496337 61.3261C0.0166273 61.3261 0 61.491 0 66.2717C0 71.0525 0.0166273 71.2174 0.496337 71.2174C0.827146 71.2174 0.992674 71.3823 0.992674 71.712C0.992674 72.0416 1.1582 72.2065 1.48901 72.2065C1.81982 72.2065 1.98535 72.3715 1.98535 72.7011C1.98535 73.1133 2.15088 73.1957 2.97802 73.1957C3.80517 73.1957 3.9707 73.278 3.9707 73.6902C3.9707 74.1573 4.13622 74.1848 6.94872 74.1848C9.76121 74.1848 9.92674 74.1573 9.92674 73.6902C9.92674 73.278 10.0923 73.1957 10.9194 73.1957C11.7466 73.1957 11.9121 73.1133 11.9121 72.7011C11.9121 72.3715 12.0776 72.2065 12.4084 72.2065C12.7392 72.2065 12.9048 72.0416 12.9048 71.712C12.9048 71.3823 13.0703 71.2174 13.4011 71.2174C13.8808 71.2174 13.8974 71.0525 13.8974 66.2717C13.8974 61.491 13.8808 61.3261 13.4011 61.3261C13.0703 61.3261 12.9048 61.1611 12.9048 60.8315C12.9048 60.5019 12.7392 60.337 12.4084 60.337C12.0776 60.337 11.9121 60.5019 11.9121 60.8315C11.9121 61.1611 11.7466 61.3261 11.4158 61.3261C11.0849 61.3261 10.9194 61.491 10.9194 61.8207C10.9194 62.1503 10.7539 62.3152 10.4231 62.3152C10.0923 62.3152 9.92674 62.4802 9.92674 62.8098C9.92674 63.2769 9.76121 63.3043 6.94872 63.3043C4.13622 63.3043 3.9707 63.2769 3.9707 62.8098C3.9707 62.4802 3.80517 62.3152 3.47436 62.3152C3.14355 62.3152 2.97802 62.1503 2.97802 61.8207C2.97802 61.491 2.81249 61.3261 2.48168 61.3261C2.15088 61.3261 1.98535 61.1611 1.98535 60.8315C1.98535 60.5019 1.81982 60.337 1.48901 60.337C1.1582 60.337 0.992674 60.5019 0.992674 60.8315ZM258.095 60.8315C258.095 61.1611 257.93 61.3261 257.599 61.3261C257.119 61.3261 257.103 61.491 257.103 66.2717C257.103 71.0525 257.119 71.2174 257.599 71.2174C257.93 71.2174 258.095 71.3823 258.095 71.712C258.095 72.0416 258.261 72.2065 258.592 72.2065C258.922 72.2065 259.088 72.3715 259.088 72.7011C259.088 73.1133 259.253 73.1957 260.081 73.1957C260.908 73.1957 261.073 73.278 261.073 73.6902C261.073 74.1573 261.239 74.1848 264.051 74.1848C266.864 74.1848 267.029 74.1573 267.029 73.6902C267.029 73.278 267.195 73.1957 268.022 73.1957C268.849 73.1957 269.015 73.1133 269.015 72.7011C269.015 72.3715 269.18 72.2065 269.511 72.2065C269.842 72.2065 270.007 72.0416 270.007 71.712C270.007 71.3823 270.173 71.2174 270.504 71.2174C270.983 71.2174 271 71.0525 271 66.2717C271 61.491 270.983 61.3261 270.504 61.3261C270.173 61.3261 270.007 61.1611 270.007 60.8315C270.007 60.5019 269.842 60.337 269.511 60.337C269.18 60.337 269.015 60.5019 269.015 60.8315C269.015 61.1611 268.849 61.3261 268.518 61.3261C268.188 61.3261 268.022 61.491 268.022 61.8207C268.022 62.1503 267.856 62.3152 267.526 62.3152C267.195 62.3152 267.029 62.4802 267.029 62.8098C267.029 63.2769 266.864 63.3043 264.051 63.3043C261.239 63.3043 261.073 63.2769 261.073 62.8098C261.073 62.4802 260.908 62.3152 260.577 62.3152C260.246 62.3152 260.081 62.1503 260.081 61.8207C260.081 61.491 259.915 61.3261 259.584 61.3261C259.253 61.3261 259.088 61.1611 259.088 60.8315C259.088 60.5019 258.922 60.337 258.592 60.337C258.261 60.337 258.095 60.5019 258.095 60.8315ZM1.98535 68.7446C1.98535 69.0742 2.15088 69.2391 2.48168 69.2391C2.81249 69.2391 2.97802 69.4041 2.97802 69.7337C2.97802 70.1459 3.14355 70.2283 3.9707 70.2283H4.96337V69.2391V68.25H3.47436C2.15088 68.25 1.98535 68.3049 1.98535 68.7446ZM8.93407 69.2391V70.2283H9.92674C10.7539 70.2283 10.9194 70.1459 10.9194 69.7337C10.9194 69.4041 11.0849 69.2391 11.4158 69.2391C11.7466 69.2391 11.9121 69.0742 11.9121 68.7446C11.9121 68.3049 11.7466 68.25 10.4231 68.25H8.93407V69.2391ZM259.088 68.7446C259.088 69.0742 259.253 69.2391 259.584 69.2391C259.915 69.2391 260.081 69.4041 260.081 69.7337C260.081 70.1459 260.246 70.2283 261.073 70.2283H262.066V69.2391V68.25H260.577C259.253 68.25 259.088 68.3049 259.088 68.7446ZM266.037 69.2391V70.2283H267.029C267.856 70.2283 268.022 70.1459 268.022 69.7337C268.022 69.4041 268.188 69.2391 268.518 69.2391C268.849 69.2391 269.015 69.0742 269.015 68.7446C269.015 68.3049 268.849 68.25 267.526 68.25H266.037V69.2391ZM5.95604 71.712C5.95604 72.1242 6.12157 72.2065 6.94872 72.2065C7.77586 72.2065 7.94139 72.1242 7.94139 71.712C7.94139 71.2997 7.77586 71.2174 6.94872 71.2174C6.12157 71.2174 5.95604 71.2997 5.95604 71.712ZM263.059 71.712C263.059 72.1242 263.224 72.2065 264.051 72.2065C264.878 72.2065 265.044 72.1242 265.044 71.712C265.044 71.2997 264.878 71.2174 264.051 71.2174C263.224 71.2174 263.059 71.2997 263.059 71.712ZM43.6777 79.625C43.6777 79.9546 43.5121 80.1196 43.1813 80.1196C42.7033 80.1196 42.685 80.2845 42.685 84.5707C42.685 88.8568 42.6666 89.0217 42.1886 89.0217C41.7474 89.0217 41.6923 89.1867 41.6923 90.5054C41.6923 91.8242 41.7474 91.9891 42.1886 91.9891C42.5195 91.9891 42.685 92.1541 42.685 92.4837C42.685 92.8133 42.8505 92.9783 43.1813 92.9783C43.5121 92.9783 43.6777 93.1432 43.6777 93.4728C43.6777 93.8025 43.8432 93.9674 44.174 93.9674C44.5048 93.9674 44.6703 94.1323 44.6703 94.462C44.6703 94.7916 44.8359 94.9565 45.1667 94.9565C45.4975 94.9565 45.663 95.1215 45.663 95.4511C45.663 95.8633 45.8285 95.9457 46.6557 95.9457C47.4828 95.9457 47.6484 96.028 47.6484 96.4402C47.6484 96.9143 47.8139 96.9348 51.619 96.9348C55.4242 96.9348 55.5897 96.9143 55.5897 96.4402C55.5897 96.028 55.7553 95.9457 56.5824 95.9457C57.4096 95.9457 57.5751 95.8633 57.5751 95.4511C57.5751 95.1215 57.7406 94.9565 58.0714 94.9565C58.4022 94.9565 58.5678 94.7916 58.5678 94.462C58.5678 94.1323 58.7333 93.9674 59.0641 93.9674C59.3949 93.9674 59.5604 93.8025 59.5604 93.4728C59.5604 93.1432 59.726 92.9783 60.0568 92.9783C60.3876 92.9783 60.5531 92.8133 60.5531 92.4837C60.5531 92.1541 60.7186 91.9891 61.0494 91.9891C61.4907 91.9891 61.5458 91.8242 61.5458 90.5054C61.5458 89.1867 61.4907 89.0217 61.0494 89.0217C60.5715 89.0217 60.5531 88.8568 60.5531 84.5707C60.5531 80.2845 60.5347 80.1196 60.0568 80.1196C59.726 80.1196 59.5604 79.9546 59.5604 79.625C59.5604 79.2128 59.3949 79.1304 58.5678 79.1304C57.7406 79.1304 57.5751 79.2128 57.5751 79.625C57.5751 79.9546 57.4096 80.1196 57.0788 80.1196C56.7479 80.1196 56.5824 80.2845 56.5824 80.6141C56.5824 80.9438 56.4169 81.1087 56.0861 81.1087C55.7553 81.1087 55.5897 81.2736 55.5897 81.6033C55.5897 81.9329 55.4242 82.0978 55.0934 82.0978C54.7626 82.0978 54.5971 82.2628 54.5971 82.5924C54.5971 82.922 54.4315 83.087 54.1007 83.087C53.7699 83.087 53.6044 82.922 53.6044 82.5924C53.6044 82.1391 53.4389 82.0978 51.619 82.0978C49.7992 82.0978 49.6337 82.1391 49.6337 82.5924C49.6337 82.922 49.4682 83.087 49.1374 83.087C48.8066 83.087 48.641 82.922 48.641 82.5924C48.641 82.2628 48.4755 82.0978 48.1447 82.0978C47.8139 82.0978 47.6484 81.9329 47.6484 81.6033C47.6484 81.2736 47.4828 81.1087 47.152 81.1087C46.8212 81.1087 46.6557 80.9438 46.6557 80.6141C46.6557 80.2845 46.4902 80.1196 46.1593 80.1196C45.8285 80.1196 45.663 79.9546 45.663 79.625C45.663 79.2128 45.4975 79.1304 44.6703 79.1304C43.8432 79.1304 43.6777 79.2128 43.6777 79.625ZM211.44 79.625C211.44 79.9546 211.274 80.1196 210.943 80.1196C210.465 80.1196 210.447 80.2845 210.447 84.5707C210.447 88.8568 210.429 89.0217 209.951 89.0217C209.509 89.0217 209.454 89.1867 209.454 90.5054C209.454 91.8242 209.509 91.9891 209.951 91.9891C210.281 91.9891 210.447 92.1541 210.447 92.4837C210.447 92.8133 210.612 92.9783 210.943 92.9783C211.274 92.9783 211.44 93.1432 211.44 93.4728C211.44 93.8025 211.605 93.9674 211.936 93.9674C212.267 93.9674 212.432 94.1323 212.432 94.462C212.432 94.7916 212.598 94.9565 212.929 94.9565C213.259 94.9565 213.425 95.1215 213.425 95.4511C213.425 95.8633 213.59 95.9457 214.418 95.9457C215.245 95.9457 215.41 96.028 215.41 96.4402C215.41 96.9143 215.576 96.9348 219.381 96.9348C223.186 96.9348 223.352 96.9143 223.352 96.4402C223.352 96.028 223.517 95.9457 224.344 95.9457C225.171 95.9457 225.337 95.8633 225.337 95.4511C225.337 95.1215 225.503 94.9565 225.833 94.9565C226.164 94.9565 226.33 94.7916 226.33 94.462C226.33 94.1323 226.495 93.9674 226.826 93.9674C227.157 93.9674 227.322 93.8025 227.322 93.4728C227.322 93.1432 227.488 92.9783 227.819 92.9783C228.149 92.9783 228.315 92.8133 228.315 92.4837C228.315 92.1541 228.481 91.9891 228.811 91.9891C229.253 91.9891 229.308 91.8242 229.308 90.5054C229.308 89.1867 229.253 89.0217 228.811 89.0217C228.333 89.0217 228.315 88.8568 228.315 84.5707C228.315 80.2845 228.297 80.1196 227.819 80.1196C227.488 80.1196 227.322 79.9546 227.322 79.625C227.322 79.2128 227.157 79.1304 226.33 79.1304C225.503 79.1304 225.337 79.2128 225.337 79.625C225.337 79.9546 225.171 80.1196 224.841 80.1196C224.51 80.1196 224.344 80.2845 224.344 80.6141C224.344 80.9438 224.179 81.1087 223.848 81.1087C223.517 81.1087 223.352 81.2736 223.352 81.6033C223.352 81.9329 223.186 82.0978 222.855 82.0978C222.525 82.0978 222.359 82.2628 222.359 82.5924C222.359 82.922 222.193 83.087 221.863 83.087C221.532 83.087 221.366 82.922 221.366 82.5924C221.366 82.1391 221.201 82.0978 219.381 82.0978C217.561 82.0978 217.396 82.1391 217.396 82.5924C217.396 82.922 217.23 83.087 216.899 83.087C216.568 83.087 216.403 82.922 216.403 82.5924C216.403 82.2628 216.237 82.0978 215.907 82.0978C215.576 82.0978 215.41 81.9329 215.41 81.6033C215.41 81.2736 215.245 81.1087 214.914 81.1087C214.583 81.1087 214.418 80.9438 214.418 80.6141C214.418 80.2845 214.252 80.1196 213.921 80.1196C213.59 80.1196 213.425 79.9546 213.425 79.625C213.425 79.2128 213.259 79.1304 212.432 79.1304C211.605 79.1304 211.44 79.2128 211.44 79.625ZM45.663 90.0109C45.663 90.8351 45.7456 91 46.1593 91C46.4902 91 46.6557 91.1649 46.6557 91.4946C46.6557 91.9342 46.8212 91.9891 48.1447 91.9891H49.6337V91V90.0109H48.641C47.8139 90.0109 47.6484 89.9285 47.6484 89.5163C47.6484 89.1041 47.4828 89.0217 46.6557 89.0217H45.663V90.0109ZM55.5897 89.5163C55.5897 89.9285 55.4242 90.0109 54.5971 90.0109H53.6044V91V91.9891H55.0934C56.4169 91.9891 56.5824 91.9342 56.5824 91.4946C56.5824 91.1649 56.7479 91 57.0788 91C57.4096 91 57.5751 90.8351 57.5751 90.5054C57.5751 90.1758 57.4096 90.0109 57.0788 90.0109C56.7479 90.0109 56.5824 89.8459 56.5824 89.5163C56.5824 89.1867 56.4169 89.0217 56.0861 89.0217C55.7553 89.0217 55.5897 89.1867 55.5897 89.5163ZM213.425 90.0109C213.425 90.8351 213.508 91 213.921 91C214.252 91 214.418 91.1649 214.418 91.4946C214.418 91.9342 214.583 91.9891 215.907 91.9891H217.396V91V90.0109H216.403C215.576 90.0109 215.41 89.9285 215.41 89.5163C215.41 89.1041 215.245 89.0217 214.418 89.0217H213.425V90.0109ZM223.352 89.5163C223.352 89.9285 223.186 90.0109 222.359 90.0109H221.366V91V91.9891H222.855C224.179 91.9891 224.344 91.9342 224.344 91.4946C224.344 91.1649 224.51 91 224.841 91C225.171 91 225.337 90.8351 225.337 90.5054C225.337 90.1758 225.171 90.0109 224.841 90.0109C224.51 90.0109 224.344 89.8459 224.344 89.5163C224.344 89.1867 224.179 89.0217 223.848 89.0217C223.517 89.0217 223.352 89.1867 223.352 89.5163ZM50.6264 93.9674V94.9565H51.619H52.6117V93.9674V92.9783H51.619H50.6264V93.9674ZM218.388 93.9674V94.9565H219.381H220.374V93.9674V92.9783H219.381H218.388V93.9674ZM10.9194 120.179C10.9194 120.509 10.7539 120.674 10.4231 120.674C9.94337 120.674 9.92674 120.839 9.92674 125.62C9.92674 130.4 9.94337 130.565 10.4231 130.565C10.7539 130.565 10.9194 130.73 10.9194 131.06C10.9194 131.389 11.0849 131.554 11.4158 131.554C11.7466 131.554 11.9121 131.719 11.9121 132.049C11.9121 132.461 12.0776 132.543 12.9048 132.543C13.7319 132.543 13.8974 132.626 13.8974 133.038C13.8974 133.505 14.063 133.533 16.8755 133.533C19.688 133.533 19.8535 133.505 19.8535 133.038C19.8535 132.626 20.019 132.543 20.8462 132.543C21.6733 132.543 21.8388 132.461 21.8388 132.049C21.8388 131.719 22.0044 131.554 22.3352 131.554C22.666 131.554 22.8315 131.389 22.8315 131.06C22.8315 130.73 22.997 130.565 23.3278 130.565C23.8075 130.565 23.8242 130.4 23.8242 125.62C23.8242 120.839 23.8075 120.674 23.3278 120.674C22.997 120.674 22.8315 120.509 22.8315 120.179C22.8315 119.85 22.666 119.685 22.3352 119.685C22.0044 119.685 21.8388 119.85 21.8388 120.179C21.8388 120.509 21.6733 120.674 21.3425 120.674C21.0117 120.674 20.8462 120.839 20.8462 121.168C20.8462 121.498 20.6806 121.663 20.3498 121.663C20.019 121.663 19.8535 121.828 19.8535 122.158C19.8535 122.625 19.688 122.652 16.8755 122.652C14.063 122.652 13.8974 122.625 13.8974 122.158C13.8974 121.828 13.7319 121.663 13.4011 121.663C13.0703 121.663 12.9048 121.498 12.9048 121.168C12.9048 120.839 12.7392 120.674 12.4084 120.674C12.0776 120.674 11.9121 120.509 11.9121 120.179C11.9121 119.85 11.7466 119.685 11.4158 119.685C11.0849 119.685 10.9194 119.85 10.9194 120.179ZM248.169 120.179C248.169 120.509 248.003 120.674 247.672 120.674C247.192 120.674 247.176 120.839 247.176 125.62C247.176 130.4 247.192 130.565 247.672 130.565C248.003 130.565 248.169 130.73 248.169 131.06C248.169 131.389 248.334 131.554 248.665 131.554C248.996 131.554 249.161 131.719 249.161 132.049C249.161 132.461 249.327 132.543 250.154 132.543C250.981 132.543 251.147 132.626 251.147 133.038C251.147 133.505 251.312 133.533 254.125 133.533C256.937 133.533 257.103 133.505 257.103 133.038C257.103 132.626 257.268 132.543 258.095 132.543C258.922 132.543 259.088 132.461 259.088 132.049C259.088 131.719 259.253 131.554 259.584 131.554C259.915 131.554 260.081 131.389 260.081 131.06C260.081 130.73 260.246 130.565 260.577 130.565C261.057 130.565 261.073 130.4 261.073 125.62C261.073 120.839 261.057 120.674 260.577 120.674C260.246 120.674 260.081 120.509 260.081 120.179C260.081 119.85 259.915 119.685 259.584 119.685C259.253 119.685 259.088 119.85 259.088 120.179C259.088 120.509 258.922 120.674 258.592 120.674C258.261 120.674 258.095 120.839 258.095 121.168C258.095 121.498 257.93 121.663 257.599 121.663C257.268 121.663 257.103 121.828 257.103 122.158C257.103 122.625 256.937 122.652 254.125 122.652C251.312 122.652 251.147 122.625 251.147 122.158C251.147 121.828 250.981 121.663 250.65 121.663C250.319 121.663 250.154 121.498 250.154 121.168C250.154 120.839 249.988 120.674 249.658 120.674C249.327 120.674 249.161 120.509 249.161 120.179C249.161 119.85 248.996 119.685 248.665 119.685C248.334 119.685 248.169 119.85 248.169 120.179ZM11.9121 128.092C11.9121 128.422 12.0776 128.587 12.4084 128.587C12.7392 128.587 12.9048 128.752 12.9048 129.082C12.9048 129.494 13.0703 129.576 13.8974 129.576H14.8901V128.587V127.598H13.4011C12.0776 127.598 11.9121 127.653 11.9121 128.092ZM18.8608 128.587V129.576H19.8535C20.6806 129.576 20.8462 129.494 20.8462 129.082C20.8462 128.752 21.0117 128.587 21.3425 128.587C21.6733 128.587 21.8388 128.422 21.8388 128.092C21.8388 127.653 21.6733 127.598 20.3498 127.598H18.8608V128.587ZM62.5385 128.587C62.5385 129.411 62.4558 129.576 62.0421 129.576C61.5624 129.576 61.5458 129.741 61.5458 134.522C61.5458 139.302 61.5624 139.467 62.0421 139.467C62.3729 139.467 62.5385 139.632 62.5385 139.962C62.5385 140.292 62.704 140.457 63.0348 140.457C63.3656 140.457 63.5311 140.621 63.5311 140.951C63.5311 141.363 63.6967 141.446 64.5238 141.446C65.351 141.446 65.5165 141.528 65.5165 141.94C65.5165 142.27 65.682 142.435 66.0128 142.435C66.3436 142.435 66.5092 142.6 66.5092 142.929C66.5092 143.396 66.6747 143.424 69.4872 143.424C72.2997 143.424 72.4652 143.396 72.4652 142.929C72.4652 142.6 72.6307 142.435 72.9615 142.435C73.2924 142.435 73.4579 142.27 73.4579 141.94C73.4579 141.528 73.6234 141.446 74.4505 141.446C75.2777 141.446 75.4432 141.363 75.4432 140.951C75.4432 140.621 75.6087 140.457 75.9396 140.457C76.2704 140.457 76.4359 140.292 76.4359 139.962C76.4359 139.632 76.6014 139.467 76.9322 139.467C77.4119 139.467 77.4286 139.302 77.4286 134.522C77.4286 129.741 77.4119 129.576 76.9322 129.576C76.5185 129.576 76.4359 129.411 76.4359 128.587C76.4359 127.763 76.3533 127.598 75.9396 127.598C75.6087 127.598 75.4432 127.763 75.4432 128.092C75.4432 128.505 75.2777 128.587 74.4505 128.587C73.6234 128.587 73.4579 128.669 73.4579 129.082C73.4579 129.411 73.2924 129.576 72.9615 129.576C72.6307 129.576 72.4652 129.741 72.4652 130.071C72.4652 130.538 72.2997 130.565 69.4872 130.565C66.6747 130.565 66.5092 130.538 66.5092 130.071C66.5092 129.741 66.3436 129.576 66.0128 129.576C65.682 129.576 65.5165 129.411 65.5165 129.082C65.5165 128.669 65.351 128.587 64.5238 128.587C63.6967 128.587 63.5311 128.505 63.5311 128.092C63.5311 127.763 63.3656 127.598 63.0348 127.598C62.6211 127.598 62.5385 127.763 62.5385 128.587ZM194.564 128.587C194.564 129.411 194.481 129.576 194.068 129.576C193.588 129.576 193.571 129.741 193.571 134.522C193.571 139.302 193.588 139.467 194.068 139.467C194.399 139.467 194.564 139.632 194.564 139.962C194.564 140.292 194.73 140.457 195.06 140.457C195.391 140.457 195.557 140.621 195.557 140.951C195.557 141.363 195.722 141.446 196.549 141.446C197.377 141.446 197.542 141.528 197.542 141.94C197.542 142.27 197.708 142.435 198.038 142.435C198.369 142.435 198.535 142.6 198.535 142.929C198.535 143.396 198.7 143.424 201.513 143.424C204.325 143.424 204.491 143.396 204.491 142.929C204.491 142.6 204.656 142.435 204.987 142.435C205.318 142.435 205.484 142.27 205.484 141.94C205.484 141.528 205.649 141.446 206.476 141.446C207.303 141.446 207.469 141.363 207.469 140.951C207.469 140.621 207.634 140.457 207.965 140.457C208.296 140.457 208.462 140.292 208.462 139.962C208.462 139.632 208.627 139.467 208.958 139.467C209.438 139.467 209.454 139.302 209.454 134.522C209.454 129.741 209.438 129.576 208.958 129.576C208.544 129.576 208.462 129.411 208.462 128.587C208.462 127.763 208.379 127.598 207.965 127.598C207.634 127.598 207.469 127.763 207.469 128.092C207.469 128.505 207.303 128.587 206.476 128.587C205.649 128.587 205.484 128.669 205.484 129.082C205.484 129.411 205.318 129.576 204.987 129.576C204.656 129.576 204.491 129.741 204.491 130.071C204.491 130.538 204.325 130.565 201.513 130.565C198.7 130.565 198.535 130.538 198.535 130.071C198.535 129.741 198.369 129.576 198.038 129.576C197.708 129.576 197.542 129.411 197.542 129.082C197.542 128.669 197.377 128.587 196.549 128.587C195.722 128.587 195.557 128.505 195.557 128.092C195.557 127.763 195.391 127.598 195.06 127.598C194.647 127.598 194.564 127.763 194.564 128.587ZM249.161 128.092C249.161 128.422 249.327 128.587 249.658 128.587C249.988 128.587 250.154 128.752 250.154 129.082C250.154 129.494 250.319 129.576 251.147 129.576H252.139V128.587V127.598H250.65C249.327 127.598 249.161 127.653 249.161 128.092ZM256.11 128.587V129.576H257.103C257.93 129.576 258.095 129.494 258.095 129.082C258.095 128.752 258.261 128.587 258.592 128.587C258.922 128.587 259.088 128.422 259.088 128.092C259.088 127.653 258.922 127.598 257.599 127.598H256.11V128.587ZM15.8828 131.06C15.8828 131.472 16.0483 131.554 16.8755 131.554C17.7026 131.554 17.8681 131.472 17.8681 131.06C17.8681 130.648 17.7026 130.565 16.8755 130.565C16.0483 130.565 15.8828 130.648 15.8828 131.06ZM253.132 131.06C253.132 131.472 253.297 131.554 254.125 131.554C254.952 131.554 255.117 131.472 255.117 131.06C255.117 130.648 254.952 130.565 254.125 130.565C253.297 130.565 253.132 130.648 253.132 131.06ZM64.5238 137.489V138.478H66.0128C67.3363 138.478 67.5018 138.423 67.5018 137.984C67.5018 137.654 67.3363 137.489 67.0055 137.489C66.6747 137.489 66.5092 137.324 66.5092 136.995C66.5092 136.582 66.3436 136.5 65.5165 136.5H64.5238V137.489ZM72.4652 136.995C72.4652 137.324 72.2997 137.489 71.9689 137.489C71.6381 137.489 71.4725 137.654 71.4725 137.984C71.4725 138.423 71.6381 138.478 72.9615 138.478H74.4505V137.489V136.5H73.4579C72.6307 136.5 72.4652 136.582 72.4652 136.995ZM196.549 137.489V138.478H198.038C199.362 138.478 199.527 138.423 199.527 137.984C199.527 137.654 199.362 137.489 199.031 137.489C198.7 137.489 198.535 137.324 198.535 136.995C198.535 136.582 198.369 136.5 197.542 136.5H196.549V137.489ZM204.491 136.995C204.491 137.324 204.325 137.489 203.995 137.489C203.664 137.489 203.498 137.654 203.498 137.984C203.498 138.423 203.664 138.478 204.987 138.478H206.476V137.489V136.5H205.484C204.656 136.5 204.491 136.582 204.491 136.995ZM68.4945 139.962C68.4945 140.374 68.66 140.457 69.4872 140.457C70.3143 140.457 70.4799 140.374 70.4799 139.962C70.4799 139.55 70.3143 139.467 69.4872 139.467C68.66 139.467 68.4945 139.55 68.4945 139.962ZM200.52 139.962C200.52 140.374 200.686 140.457 201.513 140.457C202.34 140.457 202.505 140.374 202.505 139.962C202.505 139.55 202.34 139.467 201.513 139.467C200.686 139.467 200.52 139.55 200.52 139.962ZM104.231 159.745C104.231 160.074 104.065 160.239 103.734 160.239C103.255 160.239 103.238 160.404 103.238 165.185C103.238 169.965 103.255 170.13 103.734 170.13C104.065 170.13 104.231 170.295 104.231 170.625C104.231 170.955 104.396 171.12 104.727 171.12C105.058 171.12 105.223 171.285 105.223 171.614C105.223 172.026 105.389 172.109 106.216 172.109C107.043 172.109 107.209 172.191 107.209 172.603C107.209 173.07 107.374 173.098 110.187 173.098C112.999 173.098 113.165 173.07 113.165 172.603C113.165 172.191 113.33 172.109 114.158 172.109C114.985 172.109 115.15 172.026 115.15 171.614C115.15 171.285 115.316 171.12 115.647 171.12C115.977 171.12 116.143 170.955 116.143 170.625C116.143 170.295 116.308 170.13 116.639 170.13C117.119 170.13 117.136 169.965 117.136 165.185C117.136 160.404 117.119 160.239 116.639 160.239C116.308 160.239 116.143 160.074 116.143 159.745C116.143 159.415 115.977 159.25 115.647 159.25C115.316 159.25 115.15 159.415 115.15 159.745C115.15 160.074 114.985 160.239 114.654 160.239C114.323 160.239 114.158 160.404 114.158 160.734C114.158 161.063 113.992 161.228 113.661 161.228C113.33 161.228 113.165 161.393 113.165 161.723C113.165 162.135 112.999 162.217 112.172 162.217C111.345 162.217 111.179 162.135 111.179 161.723C111.179 161.311 111.014 161.228 110.187 161.228C109.36 161.228 109.194 161.311 109.194 161.723C109.194 162.135 109.029 162.217 108.201 162.217C107.374 162.217 107.209 162.135 107.209 161.723C107.209 161.393 107.043 161.228 106.712 161.228C106.382 161.228 106.216 161.063 106.216 160.734C106.216 160.404 106.051 160.239 105.72 160.239C105.389 160.239 105.223 160.074 105.223 159.745C105.223 159.415 105.058 159.25 104.727 159.25C104.396 159.25 104.231 159.415 104.231 159.745ZM154.857 159.745C154.857 160.074 154.692 160.239 154.361 160.239C153.881 160.239 153.864 160.404 153.864 165.185C153.864 169.965 153.881 170.13 154.361 170.13C154.692 170.13 154.857 170.295 154.857 170.625C154.857 170.955 155.023 171.12 155.353 171.12C155.684 171.12 155.85 171.285 155.85 171.614C155.85 172.026 156.015 172.109 156.842 172.109C157.67 172.109 157.835 172.191 157.835 172.603C157.835 173.07 158.001 173.098 160.813 173.098C163.626 173.098 163.791 173.07 163.791 172.603C163.791 172.191 163.957 172.109 164.784 172.109C165.611 172.109 165.777 172.026 165.777 171.614C165.777 171.285 165.942 171.12 166.273 171.12C166.604 171.12 166.769 170.955 166.769 170.625C166.769 170.295 166.935 170.13 167.266 170.13C167.745 170.13 167.762 169.965 167.762 165.185C167.762 160.404 167.745 160.239 167.266 160.239C166.935 160.239 166.769 160.074 166.769 159.745C166.769 159.415 166.604 159.25 166.273 159.25C165.942 159.25 165.777 159.415 165.777 159.745C165.777 160.074 165.611 160.239 165.28 160.239C164.949 160.239 164.784 160.404 164.784 160.734C164.784 161.063 164.618 161.228 164.288 161.228C163.957 161.228 163.791 161.393 163.791 161.723C163.791 162.135 163.626 162.217 162.799 162.217C161.971 162.217 161.806 162.135 161.806 161.723C161.806 161.311 161.64 161.228 160.813 161.228C159.986 161.228 159.821 161.311 159.821 161.723C159.821 162.135 159.655 162.217 158.828 162.217C158.001 162.217 157.835 162.135 157.835 161.723C157.835 161.393 157.67 161.228 157.339 161.228C157.008 161.228 156.842 161.063 156.842 160.734C156.842 160.404 156.677 160.239 156.346 160.239C156.015 160.239 155.85 160.074 155.85 159.745C155.85 159.415 155.684 159.25 155.353 159.25C155.023 159.25 154.857 159.415 154.857 159.745ZM106.216 168.152V169.141H107.209H108.201V168.152V167.163H107.209H106.216V168.152ZM112.172 168.152V169.141H113.165H114.158V168.152V167.163H113.165H112.172V168.152ZM156.842 168.152V169.141H157.835H158.828V168.152V167.163H157.835H156.842V168.152ZM162.799 168.152V169.141H163.791H164.784V168.152V167.163H163.791H162.799V168.152ZM44.6703 168.647C44.6703 168.976 44.5048 169.141 44.174 169.141C43.6943 169.141 43.6777 169.306 43.6777 174.087C43.6777 178.868 43.6943 179.033 44.174 179.033C44.5048 179.033 44.6703 179.198 44.6703 179.527C44.6703 179.857 44.8359 180.022 45.1667 180.022C45.4975 180.022 45.663 180.187 45.663 180.516C45.663 180.929 45.8285 181.011 46.6557 181.011C47.4828 181.011 47.6484 181.093 47.6484 181.505C47.6484 181.973 47.8139 182 50.6264 182C53.4389 182 53.6044 181.973 53.6044 181.505C53.6044 181.093 53.7699 181.011 54.5971 181.011C55.4242 181.011 55.5897 180.929 55.5897 180.516C55.5897 180.187 55.7553 180.022 56.0861 180.022C56.4169 180.022 56.5824 179.857 56.5824 179.527C56.5824 179.198 56.7479 179.033 57.0788 179.033C57.5585 179.033 57.5751 178.868 57.5751 174.087C57.5751 169.306 57.5585 169.141 57.0788 169.141C56.7479 169.141 56.5824 168.976 56.5824 168.647C56.5824 168.317 56.4169 168.152 56.0861 168.152C55.7553 168.152 55.5897 168.317 55.5897 168.647C55.5897 168.976 55.4242 169.141 55.0934 169.141C54.7626 169.141 54.5971 169.306 54.5971 169.636C54.5971 169.965 54.4315 170.13 54.1007 170.13C53.7699 170.13 53.6044 170.295 53.6044 170.625C53.6044 171.092 53.4389 171.12 50.6264 171.12C47.8139 171.12 47.6484 171.092 47.6484 170.625C47.6484 170.295 47.4828 170.13 47.152 170.13C46.8212 170.13 46.6557 169.965 46.6557 169.636C46.6557 169.306 46.4902 169.141 46.1593 169.141C45.8285 169.141 45.663 168.976 45.663 168.647C45.663 168.317 45.4975 168.152 45.1667 168.152C44.8359 168.152 44.6703 168.317 44.6703 168.647ZM214.418 168.647C214.418 168.976 214.252 169.141 213.921 169.141C213.442 169.141 213.425 169.306 213.425 174.087C213.425 178.868 213.442 179.033 213.921 179.033C214.252 179.033 214.418 179.198 214.418 179.527C214.418 179.857 214.583 180.022 214.914 180.022C215.245 180.022 215.41 180.187 215.41 180.516C215.41 180.929 215.576 181.011 216.403 181.011C217.23 181.011 217.396 181.093 217.396 181.505C217.396 181.973 217.561 182 220.374 182C223.186 182 223.352 181.973 223.352 181.505C223.352 181.093 223.517 181.011 224.344 181.011C225.171 181.011 225.337 180.929 225.337 180.516C225.337 180.187 225.503 180.022 225.833 180.022C226.164 180.022 226.33 179.857 226.33 179.527C226.33 179.198 226.495 179.033 226.826 179.033C227.306 179.033 227.322 178.868 227.322 174.087C227.322 169.306 227.306 169.141 226.826 169.141C226.495 169.141 226.33 168.976 226.33 168.647C226.33 168.317 226.164 168.152 225.833 168.152C225.503 168.152 225.337 168.317 225.337 168.647C225.337 168.976 225.171 169.141 224.841 169.141C224.51 169.141 224.344 169.306 224.344 169.636C224.344 169.965 224.179 170.13 223.848 170.13C223.517 170.13 223.352 170.295 223.352 170.625C223.352 171.092 223.186 171.12 220.374 171.12C217.561 171.12 217.396 171.092 217.396 170.625C217.396 170.295 217.23 170.13 216.899 170.13C216.568 170.13 216.403 169.965 216.403 169.636C216.403 169.306 216.237 169.141 215.907 169.141C215.576 169.141 215.41 168.976 215.41 168.647C215.41 168.317 215.245 168.152 214.914 168.152C214.583 168.152 214.418 168.317 214.418 168.647ZM109.194 170.625C109.194 171.037 109.36 171.12 110.187 171.12C111.014 171.12 111.179 171.037 111.179 170.625C111.179 170.213 111.014 170.13 110.187 170.13C109.36 170.13 109.194 170.213 109.194 170.625ZM159.821 170.625C159.821 171.037 159.986 171.12 160.813 171.12C161.64 171.12 161.806 171.037 161.806 170.625C161.806 170.213 161.64 170.13 160.813 170.13C159.986 170.13 159.821 170.213 159.821 170.625ZM45.663 176.56C45.663 176.889 45.8285 177.054 46.1593 177.054C46.4902 177.054 46.6557 177.219 46.6557 177.549C46.6557 177.961 46.8212 178.043 47.6484 178.043H48.641V177.054V176.065H47.152C45.8285 176.065 45.663 176.12 45.663 176.56ZM52.6117 177.054V178.043H53.6044C54.4315 178.043 54.5971 177.961 54.5971 177.549C54.5971 177.219 54.7626 177.054 55.0934 177.054C55.4242 177.054 55.5897 176.889 55.5897 176.56C55.5897 176.12 55.4242 176.065 54.1007 176.065H52.6117V177.054ZM215.41 176.56C215.41 176.889 215.576 177.054 215.907 177.054C216.237 177.054 216.403 177.219 216.403 177.549C216.403 177.961 216.568 178.043 217.396 178.043H218.388V177.054V176.065H216.899C215.576 176.065 215.41 176.12 215.41 176.56ZM222.359 177.054V178.043H223.352C224.179 178.043 224.344 177.961 224.344 177.549C224.344 177.219 224.51 177.054 224.841 177.054C225.171 177.054 225.337 176.889 225.337 176.56C225.337 176.12 225.171 176.065 223.848 176.065H222.359V177.054ZM49.6337 179.527C49.6337 179.939 49.7992 180.022 50.6264 180.022C51.4535 180.022 51.619 179.939 51.619 179.527C51.619 179.115 51.4535 179.033 50.6264 179.033C49.7992 179.033 49.6337 179.115 49.6337 179.527ZM219.381 179.527C219.381 179.939 219.546 180.022 220.374 180.022C221.201 180.022 221.366 179.939 221.366 179.527C221.366 179.115 221.201 179.033 220.374 179.033C219.546 179.033 219.381 179.115 219.381 179.527Z" fill="url(#paint0_radial_12_98)"/>
<defs>
<radialGradient id="paint0_radial_12_98" cx="0" cy="0" r="1" gradientUnits="userSpaceOnUse" gradientTransform="translate(135.5 91) rotate(90) scale(91 135.5)">
<stop stop-color="white"/>
<stop offset="1" stop-color="white" stop-opacity="0.42"/>
</radialGradient>
</defs>
</svg>
