<svg width="791" height="1384" viewBox="0 0 791 1384" fill="none" xmlns="http://www.w3.org/2000/svg">
<path d="M461.036 258.543L767.753 218.759L778.625 322.547L461.036 405.823H342.422L277.184 341.574L379.983 258.543H461.036Z" fill="#0098EA"/>
<rect x="6" y="-102" width="271" height="1159" rx="135.5" fill="#B6E4FF"/>
<path d="M510.081 234.264L510.088 59.4381C510.091 -20.0317 471.669 -94.5989 406.953 -140.721L393.402 -150.379C312.717 -207.883 204.049 -206.377 124.988 -146.66L94.9191 -123.948C47.6148 -88.2177 19.8086 -32.3681 19.8086 26.914L19.8086 1785H140.072C344.416 1785 510.071 1619.35 510.072 1415L510.081 381.543M510.081 234.264L759.719 175.945L770.592 279.733L510.081 381.543M510.081 234.264H429.028L326.228 317.294L391.466 381.543H510.081M391.466 85.0072V130.476V175.945M441.878 103.788V175.945" stroke="#424F5C" stroke-width="37.8123"/>
</svg>
