<svg width="432" height="293" viewBox="0 0 432 293" fill="none" xmlns="http://www.w3.org/2000/svg">
<path d="M291.299 86.932C292.346 85.846 293.386 84.759 294.464 83.667L294.61 83.474C387.121 -13.211 491.635 -150.575 471.687 -170.522C470.017 -172.198 467.493 -173 464.273 -173C428.923 -173 306.29 -78.155 217.713 6.57098C216.575 7.67499 215.389 8.789 214.251 9.884L213.585 10.502C212.653 11.404 211.684 12.311 210.771 13.201L287.959 90.401C289.09 89.256 290.191 88.088 291.299 86.932Z" fill="#0098EA"/>
<path d="M157.505 69.2812C156.404 70.6042 155.508 71.7722 154.467 73.0482C153.438 74.3132 152.41 75.5783 151.429 76.8073C134.047 98.8063 127.644 113.216 127.293 123.874C127.063 130.979 129.496 136.432 133.236 141.304C136.879 145.976 141.624 150.176 146.32 154.851C150.853 159.393 154.926 164.029 159.46 167.615C164.235 171.4 169.5 174.009 176.375 174.009C184.994 174.009 196.238 169.748 212.034 158.849C215.882 156.192 219.944 153.247 224.356 149.743C225.579 148.778 226.861 147.731 228.132 146.702L229.112 145.924C230.002 145.189 230.897 144.487 231.884 143.664L170.57 82.3572L157.505 69.2812Z" fill="#0098EA"/>
<path d="M197.571 26.1693C192.33 31.4163 187.573 36.3032 183.046 41.0542C181.921 42.2252 180.837 43.3813 179.748 44.5312C178.659 45.6782 177.479 46.8853 176.437 48.0052L253.159 124.739C254.266 123.692 255.489 122.506 256.627 121.426C257.789 120.34 258.951 119.238 260.137 118.112C264.869 113.579 269.753 108.846 274.989 103.587C277.046 101.535 279.158 99.3652 281.235 97.2562C282.36 96.1062 283.468 94.9742 284.588 93.8182C285.713 92.6682 286.84 91.5632 287.959 90.3982L210.771 13.1982C209.59 14.3302 208.5 15.4432 207.339 16.5692C206.189 17.6892 205.051 18.8092 203.914 19.9342C201.813 22.0182 199.641 24.1112 197.571 26.1693Z" fill="#424F5C"/>
<path d="M173.181 51.5629C172.092 52.7619 171.003 53.9479 169.955 55.1189L169.664 55.4389C167.619 57.6759 165.652 59.8779 163.8 61.9929C162.722 63.2399 161.7 64.4439 160.647 65.6399C159.618 66.8419 158.474 68.1279 157.506 69.2799L170.572 82.3559L231.886 143.663C233.054 142.694 234.331 141.539 235.529 140.51C236.727 139.487 237.932 138.446 239.178 137.363C241.387 135.423 243.699 133.356 246.059 131.217C247.221 130.158 248.395 129.083 249.581 127.982C250.792 126.868 251.917 125.891 253.158 124.738L176.436 48.0039C175.275 49.2519 174.307 50.3589 173.181 51.5629Z" fill="#0098EA"/>
<path d="M131.41 159.564C127.173 155.334 122.405 152.156 117.466 149.539C109.586 145.363 101.156 143 92.9009 143C81.5349 143 70.6589 146.989 62.5129 155.126C58.1439 159.486 54.1249 163.977 50.2759 168.51L48.7629 170.271C45.1799 174.58 41.8629 178.943 38.7169 183.344L37.0099 185.761C34.0079 190.092 31.1999 194.449 28.6099 198.8L27.1999 201.236C24.6519 205.651 22.2429 210.066 20.0889 214.436L19.8169 214.947C19.3029 215.976 18.8849 216.987 18.4009 218.012C17.5829 219.71 16.7849 221.411 16.0589 223.093C15.4779 224.376 14.9689 225.647 14.4249 226.93C13.7469 228.561 13.0689 230.198 12.4519 231.814C11.9439 233.079 11.4839 234.337 11.0179 235.602C10.4299 237.182 9.86792 238.761 9.32892 240.329C8.89892 241.576 8.49393 242.801 8.10593 244.027C7.61593 245.57 7.1499 247.108 6.7019 248.62C6.3629 249.8 6.0359 250.974 5.6969 252.136C5.2849 253.67 4.8979 255.168 4.5589 256.669C4.3049 257.698 4.0379 258.733 3.7959 259.74L3.90491 259.399C9.18291 238.228 18.7809 213.37 25.5599 207.723C29.9769 196.469 44.6719 209.59 36.2239 227.897C27.7749 246.211 29.4149 246.653 32.1689 250.235C34.9289 253.812 51.4619 223.878 59.9349 234.603C68.4259 245.318 30.8309 256.926 36.2239 268.095C41.6339 279.267 71.0229 253.546 79.7679 260.82C83.0419 263.538 84.2889 265.105 84.5669 266.001C102.73 256.167 120.638 243.654 135.84 228.454C149.79 214.516 151.393 192.547 141.765 173.937C139.102 168.83 135.768 163.915 131.41 159.564Z" fill="#424F5C"/>
<path d="M79.768 260.82C71.023 253.546 41.634 279.268 36.224 268.096C30.831 256.927 68.426 245.319 59.935 234.604C51.462 223.88 34.928 253.813 32.169 250.236C29.415 246.653 27.775 246.211 36.224 227.898C44.672 209.591 29.978 196.47 25.56 207.724C18.781 213.37 9.18303 238.229 3.90503 259.4L3.79602 259.741C0.425017 273.322 -1.16597 285.329 0.970028 289.633C20.07 303.368 82.739 267.122 82.739 267.122C82.739 267.122 85.003 267.496 84.567 266.002C84.289 265.105 83.042 263.537 79.768 260.82Z" fill="#0098EA"/>
</svg>
