<svg width="30" height="32" viewBox="0 0 30 32" fill="none" xmlns="http://www.w3.org/2000/svg">
<path d="M15.004 0.123047L0.907715 15.9907L1.15023 16.2655L14.9953 31.8087L29.027 16.0832L29.1146 15.9824L15.004 0.123047Z" fill="url(#paint0_linear_16_449)"/>
<path d="M14.9761 32L22.1105 15.9982L29.2188 16L14.9761 32Z" fill="#0F1D9D"/>
<path d="M14.999 31.9946L15.0026 15.9947L22.1129 15.9983L14.999 31.9946Z" fill="#102DC6"/>
<path d="M14.9992 31.9966L7.88892 15.9984L15.0028 15.9949L14.9992 31.9966Z" fill="#2E5FDC"/>
<path d="M14.9991 31.9966L0.779053 15.9984L7.89086 15.9966L14.9991 31.9966Z" fill="#4486EB"/>
<path d="M14.999 0L22.1108 15.9982L29.2209 16L14.999 0Z" fill="#213DD1"/>
<path d="M14.999 0.00195312L15.0026 16.0019L22.1129 15.9983L14.999 0.00195312Z" fill="#3346F6"/>
<path d="M14.9992 0L7.88892 15.9982L15.0028 16.0017L14.9992 0Z" fill="#4576F3"/>
<path d="M14.9991 0L0.779053 15.9982L7.89086 16L14.9991 0Z" fill="#89B8FF"/>
<defs>
<linearGradient id="paint0_linear_16_449" x1="3.14249" y1="15.8292" x2="15.8843" y2="15.8858" gradientUnits="userSpaceOnUse">
<stop stop-color="#78A8FC"/>
<stop offset="0.5" stop-color="#4F74EC"/>
<stop offset="1" stop-color="#2640DC"/>
</linearGradient>
</defs>
</svg>
